<svg xmlns="http://www.w3.org/2000/svg" width="96" height="96" viewBox="0 0 96 96" fill="none">
    <circle cx="48" cy="48" r="48" fill="#E50F38" />
    <path d="M28.2143 38.4735C26.5954 36.8546 26.5954 34.2299 28.2143 32.611L32.6111 28.2142C34.23 26.5953 36.8547 26.5953 38.4736 28.2142L67.7858 57.5265C69.4047 59.1453 69.4047 61.7701 67.7858 63.3889L63.389 67.7858C61.7701 69.4046 59.1454 69.4046 57.5266 67.7858L28.2143 38.4735Z" fill="white" />
    <path d="M38.4734 67.7858C36.8546 69.4047 34.2299 69.4047 32.611 67.7858L28.2142 63.389C26.5953 61.7701 26.5953 59.1454 28.2142 57.5265L57.5264 28.2142C59.1453 26.5954 61.77 26.5954 63.3889 28.2142L67.7857 32.6111C69.4046 34.2299 69.4046 36.8547 67.7857 38.4735L38.4734 67.7858Z" fill="white" />
</svg>